# This file uses centimeters as units for non-parametric coordinates.

mtllib sample.mtl
g default
v -4.485798 0.879078 -0.005171
v -3.391793 0.879078 -0.005171
v -4.485798 -0.214905 0.001608
v -3.391793 -0.214905 0.001608
vt 0.000000 0.000000
vt 1.000000 0.000000
vt 0.000000 1.000000
vt 1.000000 1.000000
vn 0.000000 -0.006197 -0.999981
vn 0.000000 -0.006197 -0.999981
vn 0.000000 -0.006197 -0.999981
vn 0.000000 -0.006197 -0.999981
s 1
g pPlane1
usemtl initialShadingGroup
f 1/1/1 2/2/2 3/3/3
f 3/3/3 2/2/2 4/4/4